<mxfile>
    <diagram id="iMfGCNXNM90C5YLhgv26" name="Page-1">
        <mxGraphModel dx="765" dy="339" grid="1" gridSize="10" guides="1" tooltips="1" connect="1" arrows="1" fold="1" page="1" pageScale="1" pageWidth="3300" pageHeight="4681" math="1" shadow="0">
            <root>
                <mxCell id="0"/>
                <mxCell id="1" parent="0"/>
                <mxCell id="15" value="" style="group" parent="1" vertex="1" connectable="0">
                    <mxGeometry x="260" y="130" width="350" height="100" as="geometry"/>
                </mxCell>
                <mxCell id="11" value="" style="rounded=1;whiteSpace=wrap;html=1;" parent="15" vertex="1">
                    <mxGeometry y="-10" width="350" height="110" as="geometry"/>
                </mxCell>
                <mxCell id="16" style="edgeStyle=orthogonalEdgeStyle;rounded=0;jumpSize=4;orthogonalLoop=1;jettySize=auto;html=1;exitX=1;exitY=0.5;exitDx=0;exitDy=0;entryX=0;entryY=0.5;entryDx=0;entryDy=0;strokeWidth=2;" parent="15" source="12" target="13" edge="1">
                    <mxGeometry relative="1" as="geometry"/>
                </mxCell>
                <mxCell id="12" value="Interpolation" style="rounded=1;whiteSpace=wrap;html=1;" parent="15" vertex="1">
                    <mxGeometry x="20" y="16.666666666666668" width="90" height="61.111111111111114" as="geometry"/>
                </mxCell>
                <mxCell id="17" style="edgeStyle=orthogonalEdgeStyle;rounded=0;jumpSize=4;orthogonalLoop=1;jettySize=auto;html=1;exitX=1;exitY=0.5;exitDx=0;exitDy=0;entryX=0;entryY=0.5;entryDx=0;entryDy=0;strokeWidth=2;" parent="15" source="13" target="14" edge="1">
                    <mxGeometry relative="1" as="geometry"/>
                </mxCell>
                <mxCell id="13" value="Simulation&lt;span style=&quot;color: rgba(0 , 0 , 0 , 0) ; font-family: monospace ; font-size: 0px&quot;&gt;%3CmxGraphModel%3E%3Croot%3E%3CmxCell%20id%3D%220%22%2F%3E%3CmxCell%20id%3D%221%22%20parent%3D%220%22%2F%3E%3CmxCell%20id%3D%222%22%20value%3D%22Interpolation%22%20style%3D%22rounded%3D1%3BwhiteSpace%3Dwrap%3Bhtml%3D1%3B%22%20vertex%3D%221%22%20parent%3D%221%22%3E%3CmxGeometry%20x%3D%22300%22%20y%3D%22165%22%20width%3D%2290%22%20height%3D%2255%22%20as%3D%22geometry%22%2F%3E%3C%2FmxCell%3E%3C%2Froot%3E%3C%2FmxGraphModel%3E&lt;/span&gt;&lt;span style=&quot;color: rgba(0 , 0 , 0 , 0) ; font-family: monospace ; font-size: 0px&quot;&gt;%3CmxGraphModel%3E%3Croot%3E%3CmxCell%20id%3D%220%22%2F%3E%3CmxCell%20id%3D%221%22%20parent%3D%220%22%2F%3E%3CmxCell%20id%3D%222%22%20value%3D%22Interpolation%22%20style%3D%22rounded%3D1%3BwhiteSpace%3Dwrap%3Bhtml%3D1%3B%22%20vertex%3D%221%22%20parent%3D%221%22%3E%3CmxGeometry%20x%3D%22300%22%20y%3D%22165%22%20width%3D%2290%22%20height%3D%2255%22%20as%3D%22geometry%22%2F%3E%3C%2FmxCell%3E%3C%2Froot%3E%3C%2FmxGraphModel%3E&lt;/span&gt;&lt;span style=&quot;color: rgba(0 , 0 , 0 , 0) ; font-family: monospace ; font-size: 0px&quot;&gt;%3CmxGraphModel%3E%3Croot%3E%3CmxCell%20id%3D%220%22%2F%3E%3CmxCell%20id%3D%221%22%20parent%3D%220%22%2F%3E%3CmxCell%20id%3D%222%22%20value%3D%22Interpolation%22%20style%3D%22rounded%3D1%3BwhiteSpace%3Dwrap%3Bhtml%3D1%3B%22%20vertex%3D%221%22%20parent%3D%221%22%3E%3CmxGeometry%20x%3D%22300%22%20y%3D%22165%22%20width%3D%2290%22%20height%3D%2255%22%20as%3D%22geometry%22%2F%3E%3C%2FmxCell%3E%3C%2Froot%3E%3C%2FmxGraphModel%3E&lt;/span&gt;" style="rounded=1;whiteSpace=wrap;html=1;" parent="15" vertex="1">
                    <mxGeometry x="130" y="16.666666666666668" width="90" height="61.111111111111114" as="geometry"/>
                </mxCell>
                <mxCell id="14" value="Probability" style="rounded=1;whiteSpace=wrap;html=1;" parent="15" vertex="1">
                    <mxGeometry x="240" y="16.666666666666668" width="90" height="61.111111111111114" as="geometry"/>
                </mxCell>
                <mxCell id="27" value="Gempy" style="text;html=1;align=center;verticalAlign=middle;resizable=0;points=[];autosize=1;" vertex="1" parent="15">
                    <mxGeometry x="10" y="-10" width="50" height="20" as="geometry"/>
                </mxCell>
                <mxCell id="21" value="$$\pi, \frac{\partial \pi}{\partial m},\frac{\partial^2 \pi}{\partial m^2}&lt;br&gt;$$" style="rounded=0;whiteSpace=wrap;html=1;" parent="1" vertex="1">
                    <mxGeometry x="670" y="200" width="270" height="120" as="geometry"/>
                </mxCell>
                <mxCell id="25" style="edgeStyle=orthogonalEdgeStyle;rounded=0;orthogonalLoop=1;jettySize=auto;html=1;exitX=1;exitY=0.5;exitDx=0;exitDy=0;entryX=0;entryY=0.5;entryDx=0;entryDy=0;" parent="1" source="22" target="21" edge="1">
                    <mxGeometry relative="1" as="geometry">
                        <Array as="points">
                            <mxPoint x="620" y="335"/>
                            <mxPoint x="620" y="260"/>
                        </Array>
                    </mxGeometry>
                </mxCell>
                <mxCell id="22" value="Neural Network" style="rounded=1;whiteSpace=wrap;html=1;" parent="1" vertex="1">
                    <mxGeometry x="290" y="300" width="290" height="70" as="geometry"/>
                </mxCell>
                <mxCell id="23" style="edgeStyle=orthogonalEdgeStyle;rounded=0;orthogonalLoop=1;jettySize=auto;html=1;exitX=1;exitY=0.5;exitDx=0;exitDy=0;entryX=0;entryY=0.5;entryDx=0;entryDy=0;" parent="1" source="11" target="21" edge="1">
                    <mxGeometry relative="1" as="geometry">
                        <Array as="points">
                            <mxPoint x="620" y="185"/>
                            <mxPoint x="620" y="260"/>
                        </Array>
                    </mxGeometry>
                </mxCell>
                <mxCell id="32" value="" style="group" vertex="1" connectable="0" parent="1">
                    <mxGeometry x="130" y="120" width="90" height="270" as="geometry"/>
                </mxCell>
                <mxCell id="2" value="Surface Point 1" style="rounded=1;whiteSpace=wrap;html=1;" parent="32" vertex="1">
                    <mxGeometry width="90" height="30" as="geometry"/>
                </mxCell>
                <mxCell id="3" value="Surface Point 2" style="rounded=1;whiteSpace=wrap;html=1;" parent="32" vertex="1">
                    <mxGeometry y="40" width="90" height="30" as="geometry"/>
                </mxCell>
                <mxCell id="4" value="Orientation Point 1" style="rounded=1;whiteSpace=wrap;html=1;" parent="32" vertex="1">
                    <mxGeometry y="140" width="90" height="30" as="geometry"/>
                </mxCell>
                <mxCell id="9" value="" style="endArrow=none;dashed=1;html=1;dashPattern=1 3;strokeWidth=5;jumpSize=9;" parent="32" edge="1">
                    <mxGeometry width="50" height="50" relative="1" as="geometry">
                        <mxPoint x="44.66" y="130" as="sourcePoint"/>
                        <mxPoint x="44.66" y="70" as="targetPoint"/>
                    </mxGeometry>
                </mxCell>
                <mxCell id="30" value="Orientation Point 2" style="rounded=1;whiteSpace=wrap;html=1;" vertex="1" parent="32">
                    <mxGeometry y="180" width="90" height="30" as="geometry"/>
                </mxCell>
                <mxCell id="31" value="" style="endArrow=none;dashed=1;html=1;dashPattern=1 3;strokeWidth=5;jumpSize=9;" edge="1" parent="32">
                    <mxGeometry width="50" height="50" relative="1" as="geometry">
                        <mxPoint x="44.65999999999997" y="270" as="sourcePoint"/>
                        <mxPoint x="44.65999999999997" y="210" as="targetPoint"/>
                    </mxGeometry>
                </mxCell>
                <mxCell id="33" value="" style="group" vertex="1" connectable="0" parent="1">
                    <mxGeometry x="130" y="550" width="90" height="270" as="geometry"/>
                </mxCell>
                <mxCell id="34" value="Surface Point 1" style="rounded=1;whiteSpace=wrap;html=1;" vertex="1" parent="33">
                    <mxGeometry width="90" height="30" as="geometry"/>
                </mxCell>
                <mxCell id="35" value="Surface Point 2" style="rounded=1;whiteSpace=wrap;html=1;" vertex="1" parent="33">
                    <mxGeometry y="40" width="90" height="30" as="geometry"/>
                </mxCell>
                <mxCell id="36" value="Orientation Point 1" style="rounded=1;whiteSpace=wrap;html=1;" vertex="1" parent="33">
                    <mxGeometry y="140" width="90" height="30" as="geometry"/>
                </mxCell>
                <mxCell id="37" value="" style="endArrow=none;dashed=1;html=1;dashPattern=1 3;strokeWidth=5;jumpSize=9;" edge="1" parent="33">
                    <mxGeometry width="50" height="50" relative="1" as="geometry">
                        <mxPoint x="44.66" y="130" as="sourcePoint"/>
                        <mxPoint x="44.66" y="70" as="targetPoint"/>
                    </mxGeometry>
                </mxCell>
                <mxCell id="38" value="Orientation Point 2" style="rounded=1;whiteSpace=wrap;html=1;" vertex="1" parent="33">
                    <mxGeometry y="180" width="90" height="30" as="geometry"/>
                </mxCell>
                <mxCell id="39" value="" style="endArrow=none;dashed=1;html=1;dashPattern=1 3;strokeWidth=5;jumpSize=9;" edge="1" parent="33">
                    <mxGeometry width="50" height="50" relative="1" as="geometry">
                        <mxPoint x="44.65999999999997" y="270" as="sourcePoint"/>
                        <mxPoint x="44.65999999999997" y="210" as="targetPoint"/>
                    </mxGeometry>
                </mxCell>
                <mxCell id="40" value="" style="group;container=1;" vertex="1" connectable="0" parent="1">
                    <mxGeometry x="250" y="620" width="350" height="100" as="geometry"/>
                </mxCell>
                <mxCell id="41" value="" style="rounded=1;whiteSpace=wrap;html=1;" vertex="1" parent="40">
                    <mxGeometry y="-10" width="350" height="110" as="geometry"/>
                </mxCell>
                <mxCell id="42" style="edgeStyle=orthogonalEdgeStyle;rounded=0;jumpSize=4;orthogonalLoop=1;jettySize=auto;html=1;exitX=1;exitY=0.5;exitDx=0;exitDy=0;entryX=0;entryY=0.5;entryDx=0;entryDy=0;strokeWidth=2;" edge="1" parent="40" source="43" target="45">
                    <mxGeometry relative="1" as="geometry"/>
                </mxCell>
                <mxCell id="43" value="Interpolation" style="rounded=1;whiteSpace=wrap;html=1;" vertex="1" parent="40">
                    <mxGeometry x="20" y="16.666666666666668" width="90" height="61.111111111111114" as="geometry"/>
                </mxCell>
                <mxCell id="44" style="edgeStyle=orthogonalEdgeStyle;rounded=0;jumpSize=4;orthogonalLoop=1;jettySize=auto;html=1;exitX=1;exitY=0.5;exitDx=0;exitDy=0;entryX=0;entryY=0.5;entryDx=0;entryDy=0;strokeWidth=2;" edge="1" parent="40" source="45" target="46">
                    <mxGeometry relative="1" as="geometry"/>
                </mxCell>
                <mxCell id="45" value="Simulation&lt;span style=&quot;color: rgba(0 , 0 , 0 , 0) ; font-family: monospace ; font-size: 0px&quot;&gt;%3CmxGraphModel%3E%3Croot%3E%3CmxCell%20id%3D%220%22%2F%3E%3CmxCell%20id%3D%221%22%20parent%3D%220%22%2F%3E%3CmxCell%20id%3D%222%22%20value%3D%22Interpolation%22%20style%3D%22rounded%3D1%3BwhiteSpace%3Dwrap%3Bhtml%3D1%3B%22%20vertex%3D%221%22%20parent%3D%221%22%3E%3CmxGeometry%20x%3D%22300%22%20y%3D%22165%22%20width%3D%2290%22%20height%3D%2255%22%20as%3D%22geometry%22%2F%3E%3C%2FmxCell%3E%3C%2Froot%3E%3C%2FmxGraphModel%3E&lt;/span&gt;&lt;span style=&quot;color: rgba(0 , 0 , 0 , 0) ; font-family: monospace ; font-size: 0px&quot;&gt;%3CmxGraphModel%3E%3Croot%3E%3CmxCell%20id%3D%220%22%2F%3E%3CmxCell%20id%3D%221%22%20parent%3D%220%22%2F%3E%3CmxCell%20id%3D%222%22%20value%3D%22Interpolation%22%20style%3D%22rounded%3D1%3BwhiteSpace%3Dwrap%3Bhtml%3D1%3B%22%20vertex%3D%221%22%20parent%3D%221%22%3E%3CmxGeometry%20x%3D%22300%22%20y%3D%22165%22%20width%3D%2290%22%20height%3D%2255%22%20as%3D%22geometry%22%2F%3E%3C%2FmxCell%3E%3C%2Froot%3E%3C%2FmxGraphModel%3E&lt;/span&gt;&lt;span style=&quot;color: rgba(0 , 0 , 0 , 0) ; font-family: monospace ; font-size: 0px&quot;&gt;%3CmxGraphModel%3E%3Croot%3E%3CmxCell%20id%3D%220%22%2F%3E%3CmxCell%20id%3D%221%22%20parent%3D%220%22%2F%3E%3CmxCell%20id%3D%222%22%20value%3D%22Interpolation%22%20style%3D%22rounded%3D1%3BwhiteSpace%3Dwrap%3Bhtml%3D1%3B%22%20vertex%3D%221%22%20parent%3D%221%22%3E%3CmxGeometry%20x%3D%22300%22%20y%3D%22165%22%20width%3D%2290%22%20height%3D%2255%22%20as%3D%22geometry%22%2F%3E%3C%2FmxCell%3E%3C%2Froot%3E%3C%2FmxGraphModel%3E&lt;/span&gt;" style="rounded=1;whiteSpace=wrap;html=1;" vertex="1" parent="40">
                    <mxGeometry x="130" y="16.666666666666668" width="90" height="61.111111111111114" as="geometry"/>
                </mxCell>
                <mxCell id="46" value="Probability" style="rounded=1;whiteSpace=wrap;html=1;" vertex="1" parent="40">
                    <mxGeometry x="240" y="16.666666666666668" width="90" height="61.111111111111114" as="geometry"/>
                </mxCell>
                <mxCell id="47" value="Gempy Computation Graph" style="text;html=1;align=center;verticalAlign=middle;resizable=0;points=[];autosize=1;" vertex="1" parent="40">
                    <mxGeometry x="10" y="-10" width="160" height="20" as="geometry"/>
                </mxCell>
                <mxCell id="48" style="edgeStyle=orthogonalEdgeStyle;rounded=0;orthogonalLoop=1;jettySize=auto;html=1;exitX=1;exitY=0.5;exitDx=0;exitDy=0;entryX=0;entryY=0.5;entryDx=0;entryDy=0;" edge="1" parent="1" source="34" target="41">
                    <mxGeometry relative="1" as="geometry">
                        <Array as="points">
                            <mxPoint x="230" y="565"/>
                            <mxPoint x="230" y="665"/>
                        </Array>
                    </mxGeometry>
                </mxCell>
                <mxCell id="49" style="edgeStyle=orthogonalEdgeStyle;rounded=0;orthogonalLoop=1;jettySize=auto;html=1;exitX=1;exitY=0.5;exitDx=0;exitDy=0;entryX=0;entryY=0.5;entryDx=0;entryDy=0;" edge="1" parent="1" source="35" target="41">
                    <mxGeometry relative="1" as="geometry">
                        <Array as="points">
                            <mxPoint x="230" y="605"/>
                            <mxPoint x="230" y="665"/>
                        </Array>
                    </mxGeometry>
                </mxCell>
                <mxCell id="50" style="edgeStyle=orthogonalEdgeStyle;rounded=0;orthogonalLoop=1;jettySize=auto;html=1;exitX=1;exitY=0.5;exitDx=0;exitDy=0;entryX=0;entryY=0.5;entryDx=0;entryDy=0;" edge="1" parent="1" source="36" target="41">
                    <mxGeometry relative="1" as="geometry">
                        <Array as="points">
                            <mxPoint x="230" y="705"/>
                            <mxPoint x="230" y="665"/>
                        </Array>
                    </mxGeometry>
                </mxCell>
                <mxCell id="51" style="edgeStyle=orthogonalEdgeStyle;rounded=0;orthogonalLoop=1;jettySize=auto;html=1;exitX=1;exitY=0.5;exitDx=0;exitDy=0;entryX=0;entryY=0.5;entryDx=0;entryDy=0;" edge="1" parent="1" source="38" target="41">
                    <mxGeometry relative="1" as="geometry">
                        <Array as="points">
                            <mxPoint x="230" y="745"/>
                            <mxPoint x="230" y="665"/>
                        </Array>
                    </mxGeometry>
                </mxCell>
                <mxCell id="52" value="$$\pi, \frac{\partial \pi}{\partial m},\frac{\partial^2 \pi}{\partial m^2}&lt;br&gt;$$" style="rounded=1;whiteSpace=wrap;html=1;" vertex="1" parent="1">
                    <mxGeometry x="620" y="632.5" width="130" height="65" as="geometry"/>
                </mxCell>
                <mxCell id="53" style="edgeStyle=orthogonalEdgeStyle;rounded=0;orthogonalLoop=1;jettySize=auto;html=1;entryX=0;entryY=0.5;entryDx=0;entryDy=0;" edge="1" parent="1" source="41" target="52">
                    <mxGeometry relative="1" as="geometry"/>
                </mxCell>
                <mxCell id="54" value="" style="group" vertex="1" connectable="0" parent="1">
                    <mxGeometry x="130" y="1030" width="90" height="270" as="geometry"/>
                </mxCell>
                <mxCell id="55" value="Surface Point 1" style="rounded=1;whiteSpace=wrap;html=1;" vertex="1" parent="54">
                    <mxGeometry width="90" height="30" as="geometry"/>
                </mxCell>
                <mxCell id="56" value="Surface Point 2" style="rounded=1;whiteSpace=wrap;html=1;" vertex="1" parent="54">
                    <mxGeometry y="40" width="90" height="30" as="geometry"/>
                </mxCell>
                <mxCell id="57" value="Orientation Point 1" style="rounded=1;whiteSpace=wrap;html=1;" vertex="1" parent="54">
                    <mxGeometry y="140" width="90" height="30" as="geometry"/>
                </mxCell>
                <mxCell id="58" value="" style="endArrow=none;dashed=1;html=1;dashPattern=1 3;strokeWidth=5;jumpSize=9;" edge="1" parent="54">
                    <mxGeometry width="50" height="50" relative="1" as="geometry">
                        <mxPoint x="44.66" y="130" as="sourcePoint"/>
                        <mxPoint x="44.66" y="70" as="targetPoint"/>
                    </mxGeometry>
                </mxCell>
                <mxCell id="59" value="Orientation Point 2" style="rounded=1;whiteSpace=wrap;html=1;" vertex="1" parent="54">
                    <mxGeometry y="180" width="90" height="30" as="geometry"/>
                </mxCell>
                <mxCell id="60" value="" style="endArrow=none;dashed=1;html=1;dashPattern=1 3;strokeWidth=5;jumpSize=9;" edge="1" parent="54">
                    <mxGeometry width="50" height="50" relative="1" as="geometry">
                        <mxPoint x="44.65999999999997" y="270" as="sourcePoint"/>
                        <mxPoint x="44.65999999999997" y="210" as="targetPoint"/>
                    </mxGeometry>
                </mxCell>
                <mxCell id="61" value="" style="group;container=1;" vertex="1" connectable="0" parent="1">
                    <mxGeometry x="260" y="1010" width="350" height="100" as="geometry"/>
                </mxCell>
                <mxCell id="62" value="" style="rounded=1;whiteSpace=wrap;html=1;" vertex="1" parent="61">
                    <mxGeometry y="-10" width="350" height="110" as="geometry"/>
                </mxCell>
                <mxCell id="63" style="edgeStyle=orthogonalEdgeStyle;rounded=0;jumpSize=4;orthogonalLoop=1;jettySize=auto;html=1;exitX=1;exitY=0.5;exitDx=0;exitDy=0;entryX=0;entryY=0.5;entryDx=0;entryDy=0;strokeWidth=2;" edge="1" parent="61" source="64" target="66">
                    <mxGeometry relative="1" as="geometry"/>
                </mxCell>
                <mxCell id="64" value="Interpolation" style="rounded=1;whiteSpace=wrap;html=1;" vertex="1" parent="61">
                    <mxGeometry x="20" y="16.666666666666668" width="90" height="61.111111111111114" as="geometry"/>
                </mxCell>
                <mxCell id="65" style="edgeStyle=orthogonalEdgeStyle;rounded=0;jumpSize=4;orthogonalLoop=1;jettySize=auto;html=1;exitX=1;exitY=0.5;exitDx=0;exitDy=0;entryX=0;entryY=0.5;entryDx=0;entryDy=0;strokeWidth=2;" edge="1" parent="61" source="66" target="67">
                    <mxGeometry relative="1" as="geometry"/>
                </mxCell>
                <mxCell id="66" value="Simulation&lt;span style=&quot;color: rgba(0 , 0 , 0 , 0) ; font-family: monospace ; font-size: 0px&quot;&gt;%3CmxGraphModel%3E%3Croot%3E%3CmxCell%20id%3D%220%22%2F%3E%3CmxCell%20id%3D%221%22%20parent%3D%220%22%2F%3E%3CmxCell%20id%3D%222%22%20value%3D%22Interpolation%22%20style%3D%22rounded%3D1%3BwhiteSpace%3Dwrap%3Bhtml%3D1%3B%22%20vertex%3D%221%22%20parent%3D%221%22%3E%3CmxGeometry%20x%3D%22300%22%20y%3D%22165%22%20width%3D%2290%22%20height%3D%2255%22%20as%3D%22geometry%22%2F%3E%3C%2FmxCell%3E%3C%2Froot%3E%3C%2FmxGraphModel%3E&lt;/span&gt;&lt;span style=&quot;color: rgba(0 , 0 , 0 , 0) ; font-family: monospace ; font-size: 0px&quot;&gt;%3CmxGraphModel%3E%3Croot%3E%3CmxCell%20id%3D%220%22%2F%3E%3CmxCell%20id%3D%221%22%20parent%3D%220%22%2F%3E%3CmxCell%20id%3D%222%22%20value%3D%22Interpolation%22%20style%3D%22rounded%3D1%3BwhiteSpace%3Dwrap%3Bhtml%3D1%3B%22%20vertex%3D%221%22%20parent%3D%221%22%3E%3CmxGeometry%20x%3D%22300%22%20y%3D%22165%22%20width%3D%2290%22%20height%3D%2255%22%20as%3D%22geometry%22%2F%3E%3C%2FmxCell%3E%3C%2Froot%3E%3C%2FmxGraphModel%3E&lt;/span&gt;&lt;span style=&quot;color: rgba(0 , 0 , 0 , 0) ; font-family: monospace ; font-size: 0px&quot;&gt;%3CmxGraphModel%3E%3Croot%3E%3CmxCell%20id%3D%220%22%2F%3E%3CmxCell%20id%3D%221%22%20parent%3D%220%22%2F%3E%3CmxCell%20id%3D%222%22%20value%3D%22Interpolation%22%20style%3D%22rounded%3D1%3BwhiteSpace%3Dwrap%3Bhtml%3D1%3B%22%20vertex%3D%221%22%20parent%3D%221%22%3E%3CmxGeometry%20x%3D%22300%22%20y%3D%22165%22%20width%3D%2290%22%20height%3D%2255%22%20as%3D%22geometry%22%2F%3E%3C%2FmxCell%3E%3C%2Froot%3E%3C%2FmxGraphModel%3E&lt;/span&gt;" style="rounded=1;whiteSpace=wrap;html=1;" vertex="1" parent="61">
                    <mxGeometry x="130" y="16.666666666666668" width="90" height="61.111111111111114" as="geometry"/>
                </mxCell>
                <mxCell id="67" value="Probability" style="rounded=1;whiteSpace=wrap;html=1;" vertex="1" parent="61">
                    <mxGeometry x="240" y="16.666666666666668" width="90" height="61.111111111111114" as="geometry"/>
                </mxCell>
                <mxCell id="68" value="Gempy Computation Graph" style="text;html=1;align=center;verticalAlign=middle;resizable=0;points=[];autosize=1;" vertex="1" parent="61">
                    <mxGeometry x="10" y="-10" width="160" height="20" as="geometry"/>
                </mxCell>
                <mxCell id="69" style="edgeStyle=orthogonalEdgeStyle;rounded=0;orthogonalLoop=1;jettySize=auto;html=1;exitX=1;exitY=0.5;exitDx=0;exitDy=0;entryX=0;entryY=0.5;entryDx=0;entryDy=0;" edge="1" parent="1" source="55" target="62">
                    <mxGeometry relative="1" as="geometry">
                        <Array as="points">
                            <mxPoint x="230" y="1045"/>
                            <mxPoint x="230" y="1150"/>
                            <mxPoint x="240" y="1150"/>
                            <mxPoint x="240" y="1055"/>
                        </Array>
                        <mxPoint x="250" y="1145" as="targetPoint"/>
                    </mxGeometry>
                </mxCell>
                <mxCell id="70" style="edgeStyle=orthogonalEdgeStyle;rounded=0;orthogonalLoop=1;jettySize=auto;html=1;exitX=1;exitY=0.5;exitDx=0;exitDy=0;entryX=0;entryY=0.5;entryDx=0;entryDy=0;" edge="1" parent="1" source="56" target="62">
                    <mxGeometry relative="1" as="geometry">
                        <Array as="points">
                            <mxPoint x="230" y="1085"/>
                            <mxPoint x="230" y="1150"/>
                            <mxPoint x="240" y="1150"/>
                            <mxPoint x="240" y="1055"/>
                        </Array>
                        <mxPoint x="250" y="1145" as="targetPoint"/>
                    </mxGeometry>
                </mxCell>
                <mxCell id="71" style="edgeStyle=orthogonalEdgeStyle;rounded=0;orthogonalLoop=1;jettySize=auto;html=1;exitX=1;exitY=0.5;exitDx=0;exitDy=0;entryX=0;entryY=0.5;entryDx=0;entryDy=0;" edge="1" parent="1" source="57" target="62">
                    <mxGeometry relative="1" as="geometry">
                        <Array as="points">
                            <mxPoint x="230" y="1185"/>
                            <mxPoint x="230" y="1150"/>
                            <mxPoint x="240" y="1150"/>
                            <mxPoint x="240" y="1055"/>
                        </Array>
                        <mxPoint x="250" y="1145" as="targetPoint"/>
                    </mxGeometry>
                </mxCell>
                <mxCell id="73" value="$$\pi, \frac{\partial \pi}{\partial m},\frac{\partial^2 \pi}{\partial m^2}&lt;br&gt;$$" style="rounded=1;whiteSpace=wrap;html=1;" vertex="1" parent="1">
                    <mxGeometry x="650" y="1120" width="130" height="65" as="geometry"/>
                </mxCell>
                <mxCell id="74" style="edgeStyle=orthogonalEdgeStyle;rounded=0;orthogonalLoop=1;jettySize=auto;html=1;entryX=0;entryY=0.5;entryDx=0;entryDy=0;" edge="1" parent="1" source="62" target="73">
                    <mxGeometry relative="1" as="geometry"/>
                </mxCell>
                <mxCell id="75" style="edgeStyle=orthogonalEdgeStyle;rounded=0;orthogonalLoop=1;jettySize=auto;html=1;entryX=0;entryY=0.5;entryDx=0;entryDy=0;" edge="1" parent="1" source="57" target="62">
                    <mxGeometry relative="1" as="geometry">
                        <Array as="points">
                            <mxPoint x="230" y="1185"/>
                            <mxPoint x="230" y="1150"/>
                            <mxPoint x="240" y="1150"/>
                            <mxPoint x="240" y="1055"/>
                        </Array>
                    </mxGeometry>
                </mxCell>
                <mxCell id="76" style="edgeStyle=orthogonalEdgeStyle;rounded=0;orthogonalLoop=1;jettySize=auto;html=1;exitX=1;exitY=0.5;exitDx=0;exitDy=0;entryX=0;entryY=0.5;entryDx=0;entryDy=0;" edge="1" parent="1" source="59" target="62">
                    <mxGeometry relative="1" as="geometry">
                        <Array as="points">
                            <mxPoint x="230" y="1225"/>
                            <mxPoint x="230" y="1150"/>
                            <mxPoint x="240" y="1150"/>
                            <mxPoint x="240" y="1055"/>
                        </Array>
                    </mxGeometry>
                </mxCell>
                <mxCell id="82" style="edgeStyle=orthogonalEdgeStyle;rounded=0;orthogonalLoop=1;jettySize=auto;html=1;exitX=1;exitY=0.5;exitDx=0;exitDy=0;entryX=0;entryY=0.5;entryDx=0;entryDy=0;" edge="1" parent="1" source="77" target="73">
                    <mxGeometry relative="1" as="geometry">
                        <Array as="points">
                            <mxPoint x="630" y="1225"/>
                            <mxPoint x="630" y="1152"/>
                            <mxPoint x="650" y="1152"/>
                        </Array>
                    </mxGeometry>
                </mxCell>
                <mxCell id="77" value="Neural Network" style="rounded=1;whiteSpace=wrap;html=1;" vertex="1" parent="1">
                    <mxGeometry x="280" y="1190" width="290" height="70" as="geometry"/>
                </mxCell>
                <mxCell id="78" style="edgeStyle=orthogonalEdgeStyle;rounded=0;orthogonalLoop=1;jettySize=auto;html=1;exitX=1;exitY=0.5;exitDx=0;exitDy=0;entryX=0;entryY=0.5;entryDx=0;entryDy=0;" edge="1" parent="1" source="55" target="77">
                    <mxGeometry relative="1" as="geometry">
                        <Array as="points">
                            <mxPoint x="230" y="1045"/>
                            <mxPoint x="230" y="1150"/>
                            <mxPoint x="240" y="1150"/>
                            <mxPoint x="240" y="1225"/>
                        </Array>
                    </mxGeometry>
                </mxCell>
                <mxCell id="79" style="edgeStyle=orthogonalEdgeStyle;rounded=0;orthogonalLoop=1;jettySize=auto;html=1;exitX=1;exitY=0.5;exitDx=0;exitDy=0;entryX=0;entryY=0.5;entryDx=0;entryDy=0;" edge="1" parent="1" source="56" target="77">
                    <mxGeometry relative="1" as="geometry">
                        <Array as="points">
                            <mxPoint x="230" y="1085"/>
                            <mxPoint x="230" y="1150"/>
                            <mxPoint x="240" y="1150"/>
                            <mxPoint x="240" y="1225"/>
                        </Array>
                    </mxGeometry>
                </mxCell>
                <mxCell id="80" style="edgeStyle=orthogonalEdgeStyle;rounded=0;orthogonalLoop=1;jettySize=auto;html=1;exitX=1;exitY=0.5;exitDx=0;exitDy=0;entryX=0;entryY=0.5;entryDx=0;entryDy=0;" edge="1" parent="1" source="57" target="77">
                    <mxGeometry relative="1" as="geometry">
                        <Array as="points">
                            <mxPoint x="230" y="1185"/>
                            <mxPoint x="230" y="1150"/>
                            <mxPoint x="240" y="1150"/>
                            <mxPoint x="240" y="1225"/>
                        </Array>
                    </mxGeometry>
                </mxCell>
                <mxCell id="81" style="edgeStyle=orthogonalEdgeStyle;rounded=0;orthogonalLoop=1;jettySize=auto;html=1;exitX=1;exitY=0.5;exitDx=0;exitDy=0;" edge="1" parent="1" source="59">
                    <mxGeometry relative="1" as="geometry">
                        <mxPoint x="280" y="1225.1379310344828" as="targetPoint"/>
                        <Array as="points">
                            <mxPoint x="230" y="1225"/>
                            <mxPoint x="230" y="1150"/>
                            <mxPoint x="240" y="1150"/>
                            <mxPoint x="240" y="1225"/>
                        </Array>
                    </mxGeometry>
                </mxCell>
            </root>
        </mxGraphModel>
    </diagram>
</mxfile>